<svg width="741" height="483" viewBox="0 0 741 483" fill="none" xmlns="http://www.w3.org/2000/svg">
<g opacity="0.25">
<path opacity="0.15" d="M363 482.264C571.211 482.264 740 407.884 740 316.132C740 224.38 571.211 150 363 150C154.789 150 -14 224.38 -14 316.132C-14 407.884 154.789 482.264 363 482.264Z" stroke="white" stroke-width="0.621" stroke-miterlimit="10"/>
<path opacity="0.3" d="M363.096 454.802C536.915 454.802 677.824 392.709 677.824 316.112C677.824 239.516 536.915 177.422 363.096 177.422C189.277 177.422 48.3682 239.516 48.3682 316.112C48.3682 392.709 189.277 454.802 363.096 454.802Z" stroke="white" stroke-width="0.621" stroke-miterlimit="10"/>
<path opacity="0.6" d="M634.928 316.869C635.703 250.795 514.508 196.955 364.232 196.614C213.956 196.274 91.5052 249.562 90.7306 315.636C89.956 381.711 211.151 435.551 361.427 435.891C511.703 436.232 634.153 382.944 634.928 316.869Z" stroke="white" stroke-width="0.621" stroke-miterlimit="10"/>
<path opacity="0.8" d="M364.331 421.585C496.403 421.299 602.941 373.99 602.291 315.917C601.64 257.844 494.047 210.998 361.974 211.284C229.902 211.57 123.363 258.88 124.014 316.953C124.665 375.026 232.258 421.871 364.331 421.585Z" stroke="white" stroke-width="0.621" stroke-miterlimit="10"/>
<path d="M513.259 382.124C596.102 345.699 596.102 286.643 513.259 250.218C430.417 213.793 296.103 213.793 213.26 250.218C130.418 286.643 130.418 345.699 213.26 382.124C296.103 418.549 430.417 418.549 513.259 382.124Z" stroke="white" stroke-width="0.621" stroke-miterlimit="10"/>
<path d="M493.795 373.813C566.199 341.978 566.199 290.363 493.795 258.528C421.391 226.693 304.001 226.693 231.597 258.528C159.193 290.363 159.193 341.978 231.597 373.813C304.001 405.649 421.391 405.649 493.795 373.813Z" stroke="white" stroke-width="0.621" stroke-miterlimit="10"/>
<path d="M473.085 364.441C533.715 337.782 533.715 294.56 473.085 267.901C412.454 241.243 314.152 241.243 253.521 267.901C192.89 294.56 192.89 337.782 253.521 364.441C314.152 391.099 412.454 391.099 473.085 364.441Z" stroke="white" stroke-width="0.621" stroke-miterlimit="10"/>
</g>
<ellipse opacity="0.05" cx="365" cy="315" rx="217" ry="109" fill="black"/>
<ellipse opacity="0.05" cx="365" cy="316" rx="151" ry="66" fill="black"/>
<g opacity="0.3" filter="url(#filter0_f)">
<ellipse cx="361" cy="311.5" rx="76" ry="34.5" fill="#42E8E0"/>
</g>
<ellipse opacity="0.1" cx="186" cy="322.5" rx="38" ry="11.5" fill="black"/>
<ellipse opacity="0.1" cx="503.5" cy="370.5" rx="38.5" ry="12.5" fill="black"/>
<path d="M472.942 224C476.362 235.345 494.727 257.395 506.066 253.978C517.421 250.561 517.472 222.974 514.052 211.646C510.631 200.318 498.652 193.871 487.314 197.288C475.941 200.688 469.522 212.656 472.942 224Z" fill="url(#paint0_radial)"/>
<path d="M472.942 224C476.362 235.345 494.727 257.395 506.066 253.978C517.421 250.561 517.472 222.974 514.052 211.646C510.631 200.318 498.652 193.871 487.314 197.288C475.941 200.688 469.522 212.656 472.942 224Z" fill="url(#paint1_linear)"/>
<path d="M494.794 197.406C488.83 196.867 481.198 200.402 477.761 205.3C474.324 210.198 476.363 214.591 482.327 215.13C488.291 215.669 495.923 212.134 499.36 207.236C502.797 202.338 500.759 197.944 494.794 197.406Z" fill="#251C72"/>
<path opacity="0.5" d="M494.794 197.406C488.83 196.867 481.198 200.402 477.761 205.3C474.324 210.198 476.363 214.591 482.327 215.13C488.291 215.669 495.923 212.134 499.36 207.236C502.797 202.338 500.759 197.944 494.794 197.406Z" fill="url(#paint2_radial)"/>
<path d="M501.011 202.96C499.95 202.068 498.433 201.479 496.462 201.294C490.498 200.755 482.866 204.29 479.429 209.188C478.367 210.686 477.828 212.151 477.761 213.464C475.604 211.646 475.419 208.582 477.744 205.3C481.181 200.402 488.813 196.867 494.777 197.406C498.922 197.776 501.163 199.998 501.011 202.96Z" fill="#42E8E0"/>
<path opacity="0.6" d="M474.778 191.616C475.705 191.599 476.48 192.339 476.514 193.265C476.531 194.191 475.789 194.965 474.863 194.999C473.936 195.016 473.161 194.275 473.127 193.349C473.11 192.407 473.852 191.632 474.778 191.616Z" fill="#42E8E0"/>
<path d="M490.734 179.833C493.092 179.783 495.047 181.651 495.097 184.007C495.148 186.364 493.278 188.316 490.919 188.367C488.56 188.417 486.606 186.549 486.555 184.193C486.505 181.853 488.375 179.884 490.734 179.833Z" fill="#42E8E0"/>
<path opacity="0.6" d="M466.287 170.222C467.601 170.188 468.696 171.232 468.73 172.562C468.764 173.875 467.719 174.969 466.388 175.002C465.074 175.036 463.979 173.992 463.945 172.663C463.928 171.35 464.973 170.256 466.287 170.222Z" fill="#42E8E0"/>
<path d="M475.857 172.124C476.767 172.107 477.508 172.814 477.525 173.723C477.542 174.632 476.834 175.372 475.924 175.389C475.014 175.406 474.273 174.699 474.256 173.79C474.239 172.898 474.947 172.141 475.857 172.124Z" fill="#42E8E0"/>
<path d="M474.037 168.455C474.66 168.438 475.166 168.926 475.183 169.549C475.199 170.171 474.711 170.676 474.088 170.693C473.464 170.71 472.959 170.222 472.942 169.599C472.925 168.976 473.414 168.471 474.037 168.455Z" fill="#42E8E0"/>
<path opacity="0.6" d="M487.819 199.914C489.133 199.88 490.211 200.924 490.245 202.22C490.279 203.533 489.234 204.61 487.937 204.644C486.623 204.677 485.544 203.634 485.511 202.338C485.477 201.042 486.521 199.948 487.819 199.914Z" fill="#42E8E0"/>
<path d="M480.641 199.139C482.596 199.089 484.23 200.637 484.264 202.59C484.314 204.542 482.764 206.175 480.81 206.209C478.856 206.259 477.221 204.711 477.188 202.758C477.137 200.806 478.687 199.173 480.641 199.139Z" fill="#42E8E0"/>
<path d="M442.537 184.933C460.393 184.933 474.868 170.472 474.868 152.633C474.868 134.794 460.393 120.332 442.537 120.332C424.68 120.332 410.205 134.794 410.205 152.633C410.205 170.472 424.68 184.933 442.537 184.933Z" fill="url(#paint3_linear)"/>
<path d="M281.283 211.275C281.283 273.975 318.652 324.807 364.766 324.807C410.879 324.807 448.248 273.975 448.248 211.275C448.248 148.576 410.879 129.775 364.766 129.775C318.652 129.775 281.283 148.576 281.283 211.275Z" fill="url(#paint4_linear)"/>
<path d="M364.766 196.363C396.235 196.363 421.746 181.652 421.746 163.506C421.746 145.361 396.235 130.65 364.766 130.65C333.296 130.65 307.785 145.361 307.785 163.506C307.785 181.652 333.296 196.363 364.766 196.363Z" fill="#251C72"/>
<path opacity="0.5" d="M364.766 196.363C396.235 196.363 421.746 181.652 421.746 163.506C421.746 145.361 396.235 130.65 364.766 130.65C333.296 130.65 307.785 145.361 307.785 163.506C307.785 181.652 333.296 196.363 364.766 196.363Z" fill="url(#paint5_radial)"/>
<path d="M405.066 149.014C382.81 136.188 346.738 136.188 324.499 149.014C315.316 154.316 309.925 160.981 308.324 167.882C306.05 158.086 311.441 147.802 324.499 140.261C346.755 127.435 382.827 127.435 405.066 140.261C418.124 147.802 423.515 158.069 421.241 167.882C419.623 160.981 414.249 154.316 405.066 149.014Z" fill="#42E8E0"/>
<path d="M430.641 85.3379C440.029 79.9229 440.032 62.37 430.648 46.1324C421.264 29.8947 406.046 21.1212 396.659 26.5362C387.271 31.9511 387.268 49.504 396.652 65.7417C406.036 81.9793 421.254 90.7528 430.641 85.3379Z" fill="#BCBEFF"/>
<path d="M361.463 170.138C408.491 170.138 446.614 132.051 446.614 85.069C446.614 38.0867 408.491 0 361.463 0C314.436 0 276.313 38.0867 276.313 85.069C276.313 132.051 314.436 170.138 361.463 170.138Z" fill="url(#paint6_linear)"/>
<path d="M432.267 115.099C440.212 96.0293 437.719 76.8547 426.697 72.2712C415.676 67.6878 400.3 79.431 392.355 98.5005C384.409 117.57 386.902 136.744 397.924 141.328C408.945 145.911 424.321 134.168 432.267 115.099Z" fill="#251C72"/>
<path opacity="0.5" d="M388.016 125.348C390.189 142.079 402.826 147.331 416.237 137.08C429.648 126.829 438.763 104.964 436.589 88.2334C434.416 71.5023 421.78 66.2508 408.369 76.5014C394.957 86.7521 385.843 108.617 388.016 125.348Z" fill="url(#paint7_radial)"/>
<path d="M399.102 110.872C399.894 116.949 404.494 118.868 409.363 115.131C414.232 111.411 417.551 103.466 416.759 97.3731C415.967 91.2968 411.368 89.3779 406.498 93.1147C401.612 96.8345 398.31 104.796 399.102 110.872Z" fill="#42E8E0"/>
<path d="M409.801 134.656C423.212 124.406 432.327 102.541 430.153 85.8098C429.26 78.9928 426.632 74.0779 422.925 71.3511C429.934 72.0075 435.241 77.9492 436.589 88.2504C438.763 104.981 429.648 126.846 416.237 137.097C408.284 143.173 400.618 143.796 395.227 139.824C399.624 140.228 404.662 138.578 409.801 134.656Z" fill="#42E8E0"/>
<path d="M415.091 136.541C428.502 126.29 437.617 104.425 435.444 87.6945C434.433 79.9517 431.181 74.6665 426.649 72.2427C431.771 74.3467 435.494 79.8507 436.589 88.2331C438.763 104.964 429.648 126.829 416.237 137.08C409.043 142.584 402.067 143.594 396.811 140.783C401.916 142.887 408.402 141.641 415.091 136.541Z" fill="#42E8E0"/>
<path d="M273.011 265.154C290.867 265.154 305.342 250.693 305.342 232.854C305.342 215.015 290.867 200.553 273.011 200.553C255.155 200.553 240.679 215.015 240.679 232.854C240.679 250.693 255.155 265.154 273.011 265.154Z" fill="url(#paint8_linear)"/>
<path d="M266.329 259.218C271.913 255.997 271.914 245.554 266.331 235.894C260.748 226.233 251.695 221.013 246.111 224.234C240.527 227.455 240.526 237.898 246.109 247.558C251.692 257.219 260.745 262.439 266.329 259.218Z" fill="#251C72"/>
<path opacity="0.5" d="M241.943 233.493C241.943 242.599 248.345 253.675 256.23 258.22C264.132 262.781 270.517 259.078 270.517 249.972C270.517 240.866 264.115 229.79 256.23 225.246C248.345 220.684 241.943 224.387 241.943 233.493Z" fill="url(#paint9_radial)"/>
<path d="M249.524 223.31C248.311 225.027 247.621 227.417 247.621 230.413C247.621 239.519 254.023 250.595 261.908 255.139C264.334 256.536 266.608 257.159 268.613 257.075C266.154 260.593 261.52 261.283 256.23 258.22C248.328 253.658 241.943 242.6 241.943 233.493C241.943 227.181 245.009 223.478 249.524 223.31Z" fill="#42E8E0"/>
<path d="M289.589 116.175L320.438 133.966V98.3832L289.589 80.5918V116.175Z" fill="#251C72"/>
<path opacity="0.8" d="M294.172 83.2344V113.7L320.438 128.849V133.966L289.589 116.175V80.5918L294.172 83.2344Z" fill="url(#paint10_radial)"/>
<path d="M314.558 108.112L317.321 109.711V106.513L314.558 104.914V108.112Z" fill="#42E8E0"/>
<path d="M308.678 100.638L311.441 102.237V99.0561L308.678 97.457V100.638Z" fill="#42E8E0"/>
<path d="M302.815 101.345L305.578 102.944V99.7463L302.815 98.1641V101.345Z" fill="#42E8E0"/>
<path d="M302.815 109.711L305.578 111.293V108.112L302.815 106.513V109.711Z" fill="#42E8E0"/>
<path d="M306.353 116.124L309.116 117.723V114.542L306.353 112.943V116.124Z" fill="#42E8E0"/>
<path d="M296.783 106.21L299.53 107.809V104.627L296.783 103.028V106.21Z" fill="#42E8E0"/>
<path d="M264.738 106.799L261.369 100.958L264.738 99.0059L295.587 116.797V152.38L292.201 154.316L288.831 148.492L264.738 134.589V106.799Z" fill="url(#paint11_linear)"/>
<path d="M261.369 136.525L292.201 154.316V118.75L261.369 100.958V136.525Z" fill="url(#paint12_linear)"/>
<path d="M261.369 136.525L292.201 154.316V118.75L261.369 100.958V136.525Z" fill="url(#paint13_linear)"/>
<path d="M250.799 323.562C254.22 334.907 272.584 356.957 283.923 353.54C295.278 350.123 295.329 322.535 291.909 311.207C288.489 299.862 276.51 293.433 265.171 296.849C253.815 300.25 247.396 312.217 250.799 323.562Z" fill="url(#paint14_linear)"/>
<path d="M272.668 296.967C266.704 296.429 259.072 299.963 255.635 304.862C252.198 309.76 254.237 314.153 260.201 314.691C266.165 315.23 273.797 311.695 277.234 306.797C280.671 301.899 278.633 297.506 272.668 296.967Z" fill="#251C72"/>
<path opacity="0.5" d="M272.668 296.967C266.704 296.429 259.072 299.963 255.635 304.862C252.198 309.76 254.237 314.153 260.201 314.691C266.165 315.23 273.797 311.695 277.234 306.797C280.671 301.899 278.633 297.506 272.668 296.967Z" fill="url(#paint15_radial)"/>
<path d="M278.885 302.522C277.824 301.63 276.307 301.041 274.336 300.856C268.372 300.317 260.74 303.852 257.303 308.75C256.241 310.248 255.702 311.712 255.635 313.025C253.478 311.207 253.293 308.144 255.618 304.862C259.055 299.963 266.687 296.429 272.651 296.967C276.796 297.338 279.037 299.559 278.885 302.522Z" fill="#42E8E0"/>
<path opacity="0.6" d="M255.803 283.35C255.129 282.71 255.096 281.65 255.736 280.96C256.376 280.287 257.438 280.253 258.128 280.893C258.802 281.532 258.836 282.593 258.196 283.283C257.555 283.956 256.494 283.99 255.803 283.35Z" fill="#42E8E0"/>
<path d="M236.158 280.573C234.44 278.957 234.356 276.264 235.973 274.547C237.591 272.83 240.286 272.746 242.005 274.362C243.723 275.978 243.807 278.671 242.19 280.388C240.589 282.105 237.877 282.189 236.158 280.573Z" fill="#42E8E0"/>
<path opacity="0.6" d="M246.857 304.542C245.897 303.633 245.846 302.135 246.756 301.159C247.666 300.199 249.165 300.149 250.142 301.058C251.103 301.966 251.153 303.465 250.243 304.441C249.334 305.4 247.817 305.451 246.857 304.542Z" fill="#42E8E0"/>
<path d="M241.364 296.496C240.707 295.873 240.674 294.846 241.297 294.19C241.92 293.533 242.948 293.5 243.605 294.123C244.262 294.745 244.296 295.772 243.673 296.429C243.066 297.085 242.022 297.119 241.364 296.496Z" fill="#42E8E0"/>
<path d="M240.084 300.384C239.629 299.963 239.612 299.256 240.033 298.802C240.455 298.347 241.162 298.33 241.617 298.751C242.072 299.172 242.089 299.879 241.668 300.333C241.247 300.788 240.539 300.805 240.084 300.384Z" fill="#42E8E0"/>
<path opacity="0.6" d="M252.333 268.302C251.372 267.41 251.339 265.912 252.232 264.953C253.124 263.993 254.624 263.96 255.584 264.852C256.545 265.744 256.578 267.242 255.685 268.201C254.792 269.144 253.293 269.194 252.333 268.302Z" fill="#42E8E0"/>
<path d="M256.915 273.89C255.483 272.544 255.416 270.305 256.764 268.891C258.111 267.461 260.352 267.393 261.767 268.74C263.2 270.086 263.267 272.325 261.919 273.739C260.571 275.153 258.33 275.22 256.915 273.89Z" fill="#42E8E0"/>
<path d="M467 333.5C467 353.658 483.342 370 503.5 370C523.658 370 540 353.658 540 333.5C540 313.342 523.658 297 503.5 297C483.342 297 467 313.342 467 333.5Z" fill="url(#paint16_linear)"/>
<path d="M213.12 291.674C210.023 276.612 195.295 266.907 180.247 270.024C165.199 273.124 155.504 287.866 158.618 302.928C161.715 317.991 176.443 327.695 191.491 324.578C206.538 321.478 216.217 306.753 213.12 291.674Z" fill="url(#paint17_linear)"/>
<g opacity="0.6">
<path d="M436.562 190.777C470.514 171.204 498.147 123.406 498.147 84.242C498.147 54.3336 481.744 36.902 457.352 40.892C454.864 41.3008 452.278 41.9385 449.691 42.7725C448.3 43.2304 446.941 45.0291 446.646 46.7952C446.352 48.5612 447.219 49.6405 448.611 49.1826C450.984 48.414 453.342 47.8254 455.634 47.4492C477.995 43.8027 493.023 59.7625 493.023 87.1854C493.023 123.079 467.698 166.887 436.579 184.841C405.459 202.796 380.118 188.21 380.118 152.3C380.118 150.665 378.972 150.011 377.548 150.829C376.124 151.646 374.978 153.641 374.978 155.26C374.978 194.424 402.594 210.351 436.562 190.777Z" fill="#42E8E0"/>
<g opacity="0.3">
<path opacity="0.3" d="M436.562 203.172C476.505 180.132 509 123.896 509 77.8317C509 60.531 504.449 46.5334 495.855 37.3924C495.036 36.5257 493.432 37.1308 492.286 38.7333C491.108 40.3522 490.829 42.3472 491.648 43.2138C499.636 51.7007 503.86 64.7008 503.86 80.7751C503.86 123.586 473.657 175.831 436.546 197.236C417.868 208.013 399.877 209.321 387.174 200.85C386.208 200.212 384.587 201.079 383.556 202.78C382.525 204.497 382.459 206.394 383.425 207.048C397.094 216.172 416.46 214.75 436.562 203.172Z" fill="#42E8E0"/>
</g>
<path d="M403.331 85.6153C403.822 85.321 404.33 84.8631 404.772 84.2744C407.866 80.0555 411.189 76.0492 414.626 72.4026C417.72 69.1158 420.945 66.0743 424.203 63.3434C425.578 62.1824 426.462 60.1057 426.151 58.683C425.84 57.2604 424.465 57.0642 423.09 58.2088C419.521 61.1849 416.002 64.5045 412.629 68.102C408.881 72.0919 405.263 76.458 401.874 81.0694C400.695 82.6719 400.401 84.6832 401.203 85.5662C401.71 86.1059 402.513 86.0895 403.331 85.6153Z" fill="#42E8E0"/>
<path d="M388.434 104.372C388.434 106.203 389.727 106.955 391.315 106.04C392.903 105.124 394.196 102.884 394.196 101.052C394.196 99.2208 392.903 98.4686 391.315 99.3844C389.727 100.3 388.434 102.54 388.434 104.372Z" fill="#42E8E0"/>
<path d="M382.427 117.879C382.427 119.71 383.72 120.462 385.308 119.547C386.896 118.631 388.189 116.391 388.189 114.559C388.189 112.728 386.896 111.975 385.308 112.891C383.72 113.807 382.427 116.047 382.427 117.879Z" fill="#42E8E0"/>
<path d="M462.46 75.3295L474.083 68.625V71.5521L462.46 78.2565V75.3295ZM452.539 83.9798L458.351 80.6276V77.7005L452.539 81.0528V83.9798ZM459.038 87.0868L463.982 84.2251V81.3144L459.038 84.1761V87.0868ZM450.739 91.8616L456.55 88.5094V85.5824L450.739 88.9346V91.8616ZM441.146 104.257L463.982 91.0931V88.166L441.146 101.33V104.257ZM459.038 100.79L463.982 97.9284V95.0013L459.038 97.8629V100.79ZM450.739 105.565L456.55 102.213V99.3019L450.739 102.654V105.565ZM451.426 112.024L463.982 104.78V101.853L451.426 109.097V112.024ZM443.028 116.864L448.84 113.512V110.585L443.028 113.954V116.864ZM434.581 121.737L440.393 118.385V115.458L434.581 118.81V121.737ZM420.962 129.603L431.962 123.258V120.331L420.962 126.676V129.603ZM427.542 139.512L433.354 136.16V133.233L427.542 136.585V139.512ZM413.922 147.361L424.923 141.017V138.09L413.922 144.434V147.361ZM458.171 121.835L463.982 118.483V115.556L458.171 118.908V121.835ZM449.724 126.708L455.535 123.356V120.429L449.724 123.781V126.708ZM436.104 134.574L447.105 128.229V125.302L436.104 131.647V134.574ZM419.292 137.403L425.103 134.051V131.124L419.292 134.476V137.403ZM410.861 142.276L416.673 138.924V135.997L410.861 139.349V142.276ZM397.225 150.141L408.226 143.797V140.87L397.225 147.214V150.141ZM458.171 135.539L463.982 132.186V129.259L458.171 132.612V135.539ZM444.551 143.404L455.552 137.059V134.132L444.551 140.477V143.404ZM423.794 114.264L429.605 110.912V107.985L423.794 111.337V114.264ZM432.568 109.195L438.379 105.843V102.916L432.568 106.268V109.195ZM410.157 122.13L421.158 115.785V112.858L410.157 119.203V122.13ZM458.744 114.657L463.982 111.632V108.705L458.744 111.73V114.657ZM443.192 123.618L455.928 116.276V113.349L443.192 120.691V123.618ZM427.657 132.595L440.393 125.253V122.326L427.657 129.668V132.595ZM402.087 126.774L407.325 123.749V120.822L402.087 123.847V126.774ZM386.535 135.751L399.271 128.409V125.482L386.535 132.824V135.751ZM371 144.712L383.736 137.37V134.443L371 141.785V144.712ZM451.132 132.759L463.868 125.417V122.49L451.132 129.832V132.759ZM444.42 136.634L448.332 134.378V131.451L444.42 133.707V136.634ZM437.692 140.51L441.604 138.253V135.326L437.692 137.583V140.51ZM425.234 147.688L434.86 142.145V139.218L425.234 144.761V147.688ZM422.631 149.193L432.257 143.633V140.706L422.631 146.249V149.193ZM414.463 133.347L418.375 131.091V128.164L414.463 130.42V133.347ZM402.021 140.526L411.647 134.983V132.056L402.021 137.599V140.526ZM399.402 142.031L409.028 136.487V133.56L399.402 139.103V142.031ZM470.056 135.539L473.968 133.282V130.371L470.056 132.628V135.539ZM457.614 142.717L467.24 137.174V134.247L457.614 139.79V142.717ZM444.895 150.06L454.52 144.516V141.589L444.895 147.132V150.06Z" fill="#42E8E0"/>
</g>
<defs>
<filter id="filter0_f" x="235" y="227" width="252" height="169" filterUnits="userSpaceOnUse" color-interpolation-filters="sRGB">
<feFlood flood-opacity="0" result="BackgroundImageFix"/>
<feBlend mode="normal" in="SourceGraphic" in2="BackgroundImageFix" result="shape"/>
<feGaussianBlur stdDeviation="25" result="effect1_foregroundBlur"/>
</filter>
<radialGradient id="paint0_radial" cx="0" cy="0" r="1" gradientUnits="userSpaceOnUse" gradientTransform="translate(480.066 207.084) rotate(163.258) scale(60.9794 60.9307)">
<stop stop-color="#C0BFF6"/>
<stop offset="1" stop-color="#393091"/>
</radialGradient>
<linearGradient id="paint1_linear" x1="494.028" y1="254.337" x2="494.028" y2="196.376" gradientUnits="userSpaceOnUse">
<stop stop-color="#2FB5D3"/>
<stop offset="0.510417" stop-color="#4C759E"/>
<stop offset="1" stop-color="#2A5479"/>
</linearGradient>
<radialGradient id="paint2_radial" cx="0" cy="0" r="1" gradientUnits="userSpaceOnUse" gradientTransform="translate(491.536 210.523) rotate(-84.8889) scale(39.5393 39.5765)">
<stop stop-color="#42E8E0"/>
<stop offset="0.1055" stop-color="#37B6BF"/>
<stop offset="0.2197" stop-color="#2C87A1"/>
<stop offset="0.338" stop-color="#235F87"/>
<stop offset="0.4587" stop-color="#1C3F72"/>
<stop offset="0.5824" stop-color="#162561"/>
<stop offset="0.7105" stop-color="#121355"/>
<stop offset="0.8458" stop-color="#10084E"/>
<stop offset="1" stop-color="#0F054C"/>
</radialGradient>
<linearGradient id="paint3_linear" x1="442.538" y1="184.937" x2="442.538" y2="120.336" gradientUnits="userSpaceOnUse">
<stop stop-color="#2FD3C7"/>
<stop offset="0.421875" stop-color="#2A5479"/>
<stop offset="1" stop-color="#4C759E"/>
</linearGradient>
<linearGradient id="paint4_linear" x1="364.77" y1="324.818" x2="364.77" y2="129.788" gradientUnits="userSpaceOnUse">
<stop stop-color="#2FD3C7"/>
<stop offset="0.421875" stop-color="#4C759E"/>
<stop offset="1" stop-color="#2A5479"/>
</linearGradient>
<radialGradient id="paint5_radial" cx="0" cy="0" r="1" gradientUnits="userSpaceOnUse" gradientTransform="translate(366.983 195.077) rotate(180) scale(111.047 110.941)">
<stop stop-color="#42E8E0"/>
<stop offset="0.1055" stop-color="#37B6BF"/>
<stop offset="0.2197" stop-color="#2C87A1"/>
<stop offset="0.338" stop-color="#235F87"/>
<stop offset="0.4587" stop-color="#1C3F72"/>
<stop offset="0.5824" stop-color="#162561"/>
<stop offset="0.7105" stop-color="#121355"/>
<stop offset="0.8458" stop-color="#10084E"/>
<stop offset="1" stop-color="#0F054C"/>
</radialGradient>
<linearGradient id="paint6_linear" x1="361.468" y1="170.147" x2="361.468" y2="0.0114794" gradientUnits="userSpaceOnUse">
<stop stop-color="#2FB5D3"/>
<stop offset="0.510417" stop-color="#4C759E"/>
<stop offset="1" stop-color="#2A5479"/>
</linearGradient>
<radialGradient id="paint7_radial" cx="0" cy="0" r="1" gradientUnits="userSpaceOnUse" gradientTransform="translate(387.972 92.9047) rotate(180) scale(70.684 70.6163)">
<stop stop-color="#42E8E0"/>
<stop offset="0.0591" stop-color="#3CCBCD"/>
<stop offset="0.1783" stop-color="#3098AC"/>
<stop offset="0.2996" stop-color="#266B8F"/>
<stop offset="0.4207" stop-color="#1E4777"/>
<stop offset="0.5414" stop-color="#172A65"/>
<stop offset="0.6619" stop-color="#131657"/>
<stop offset="0.7821" stop-color="#100A50"/>
<stop offset="0.9017" stop-color="#0F064D"/>
<stop offset="1" stop-color="#0F054C"/>
</radialGradient>
<linearGradient id="paint8_linear" x1="273.012" y1="265.158" x2="273.012" y2="200.558" gradientUnits="userSpaceOnUse">
<stop stop-color="#2FB5D3"/>
<stop offset="0.510417" stop-color="#4C759E"/>
<stop offset="1" stop-color="#2A5479"/>
</linearGradient>
<radialGradient id="paint9_radial" cx="0" cy="0" r="1" gradientUnits="userSpaceOnUse" gradientTransform="translate(262.276 236.638) rotate(180) scale(60.244 60.1864)">
<stop stop-color="#42E8E0"/>
<stop offset="0.1055" stop-color="#37B6BF"/>
<stop offset="0.2197" stop-color="#2C87A1"/>
<stop offset="0.338" stop-color="#235F87"/>
<stop offset="0.4587" stop-color="#1C3F72"/>
<stop offset="0.5824" stop-color="#162561"/>
<stop offset="0.7105" stop-color="#121355"/>
<stop offset="0.8458" stop-color="#10084E"/>
<stop offset="1" stop-color="#0F054C"/>
</radialGradient>
<radialGradient id="paint10_radial" cx="0" cy="0" r="1" gradientUnits="userSpaceOnUse" gradientTransform="translate(310.775 46.5089) rotate(180) scale(56.7848 72.8816)">
<stop stop-color="#2B237C"/>
<stop offset="0.31" stop-color="#251C72"/>
<stop offset="1" stop-color="#0F054C"/>
</radialGradient>
<linearGradient id="paint11_linear" x1="266.118" y1="122.912" x2="346.845" y2="147.484" gradientUnits="userSpaceOnUse">
<stop stop-color="#BCBEFF"/>
<stop offset="0.151" stop-color="#A3A7F5"/>
<stop offset="0.3866" stop-color="#8289E8"/>
<stop offset="0.6124" stop-color="#6A73DF"/>
<stop offset="0.8221" stop-color="#5C66D9"/>
<stop offset="1" stop-color="#5761D7"/>
</linearGradient>
<linearGradient id="paint12_linear" x1="280.094" y1="128.031" x2="390.728" y2="141.224" gradientUnits="userSpaceOnUse">
<stop stop-color="#BCBEFF"/>
<stop offset="0.151" stop-color="#A3A7F5"/>
<stop offset="0.3866" stop-color="#8289E8"/>
<stop offset="0.6124" stop-color="#6A73DF"/>
<stop offset="0.8221" stop-color="#5C66D9"/>
<stop offset="1" stop-color="#5761D7"/>
</linearGradient>
<linearGradient id="paint13_linear" x1="296.688" y1="160.525" x2="239.122" y2="65.2196" gradientUnits="userSpaceOnUse">
<stop stop-color="#42E8E0"/>
<stop offset="0.1188" stop-color="#42E2DE"/>
<stop offset="0.2699" stop-color="#41D3D7"/>
<stop offset="0.4386" stop-color="#40B9CC"/>
<stop offset="0.6201" stop-color="#3E94BC"/>
<stop offset="0.8101" stop-color="#3C66A8"/>
<stop offset="1" stop-color="#393091"/>
</linearGradient>
<linearGradient id="paint14_linear" x1="294" y1="318.5" x2="250" y2="318.5" gradientUnits="userSpaceOnUse">
<stop stop-color="#2FB5D3"/>
<stop offset="0.510417" stop-color="#4C759E"/>
<stop offset="1" stop-color="#2A5479"/>
</linearGradient>
<radialGradient id="paint15_radial" cx="0" cy="0" r="1" gradientUnits="userSpaceOnUse" gradientTransform="translate(269.408 310.08) rotate(-84.8889) scale(39.5392 39.5764)">
<stop stop-color="#42E8E0"/>
<stop offset="0.1055" stop-color="#37B6BF"/>
<stop offset="0.2197" stop-color="#2C87A1"/>
<stop offset="0.338" stop-color="#235F87"/>
<stop offset="0.4587" stop-color="#1C3F72"/>
<stop offset="0.5824" stop-color="#162561"/>
<stop offset="0.7105" stop-color="#121355"/>
<stop offset="0.8458" stop-color="#10084E"/>
<stop offset="1" stop-color="#0F054C"/>
</radialGradient>
<linearGradient id="paint16_linear" x1="466.996" y1="333.502" x2="539.995" y2="333.502" gradientUnits="userSpaceOnUse">
<stop stop-color="#2FB5D3"/>
<stop offset="0.510417" stop-color="#4C759E"/>
<stop offset="1" stop-color="#2A5479"/>
</linearGradient>
<linearGradient id="paint17_linear" x1="213.7" y1="297.3" x2="158.04" y2="297.3" gradientUnits="userSpaceOnUse">
<stop stop-color="#2FB5D3"/>
<stop offset="0.510417" stop-color="#4C759E"/>
<stop offset="1" stop-color="#2A5479"/>
</linearGradient>
</defs>
</svg>
